<?xml version="1.0" standalone="no"?><!DOCTYPE svg PUBLIC "-//W3C//DTD SVG 1.1//EN" "http://www.w3.org/Graphics/SVG/1.1/DTD/svg11.dtd"><svg class="icon" width="128px" height="128.00px" viewBox="0 0 1024 1024" version="1.1" xmlns="http://www.w3.org/2000/svg"><path fill="#1296db" d="M574.464 157.184l-7.168 2.56c-15.872 6.656-32.768 17.92-51.2 32.256l-3.072 2.56-3.072-2.56c-21.504-16.896-40.448-28.672-58.368-34.816-88.576-31.744-185.856-9.216-250.88 53.76-97.28 93.184-103.936 246.272-40.448 323.072 28.16 34.304 71.68 78.336 130.56 132.096l195.072 188.416 2.048 2.048 25.6 25.088 47.104-46.592 176.128-169.472 26.112-23.552c45.056-42.496 79.872-78.848 103.936-107.52 62.464-76.8 55.808-229.888-40.448-323.072-66.56-63.488-163.328-86.016-251.904-54.272z m231.424 335.872l-6.144 7.168c-25.6 30.208-65.024 69.632-117.248 117.248l-171.52 164.864-169.984-163.84c-57.344-52.736-98.304-94.72-123.904-125.44-41.472-50.688-36.352-165.888 34.816-235.008C297.472 215.04 363.008 199.68 423.424 220.672l4.608 2.048c13.824 6.144 33.28 20.48 58.368 43.52l0.512 0.512 25.088 22.528 39.936-35.328c20.992-17.92 37.376-28.672 48.64-32.768 57.344-19.456 119.296-7.168 163.84 30.72l6.656 6.656c71.168 68.608 76.288 183.808 34.816 234.496z"  /></svg>